<!-- Generated by IcoMoon.io -->
<svg version="1.1" xmlns="http://www.w3.org/2000/svg" width="57" height="32" viewBox="0 0 57 32">
<title>logo-1</title>
<path fill="#afb1b8" d="M20.267 3.733l3.738 3.538-6.938-0.004v17.166h18.133v-6.564l3.733 3.534v-17.671h-18.667zM35.036 17.455l-10.597-10.032h10.597v10.032zM31.746 21.923h-11.81v-11.545h0.835v10.764h10.975v0.782zM22.725 26.72h0.365l-0.635 1.198v0.698h-0.331v-0.698l-0.637-1.198h0.366l0.436 0.898 0.436-0.898zM23.273 28.615l0.154-0.441h0.734l0.155 0.441h0.344l-0.717-1.896h-0.296l-0.716 1.896h0.342zM23.794 27.122l0.275 0.786h-0.549l0.275-0.786zM25.531 27.863c0.048-0.074 0.142-0.161 0.283-0.262-0.074-0.093-0.125-0.172-0.155-0.237s-0.043-0.128-0.043-0.189c0-0.148 0.045-0.266 0.135-0.352s0.212-0.13 0.365-0.13c0.138 0 0.251 0.041 0.339 0.122s0.133 0.181 0.133 0.301c0 0.079-0.020 0.152-0.060 0.219s-0.105 0.132-0.197 0.198l-0.129 0.094 0.366 0.432c0.053-0.104 0.079-0.22 0.079-0.348h0.275c0 0.233-0.055 0.425-0.164 0.574l0.279 0.329h-0.367l-0.107-0.126c-0.135 0.102-0.297 0.152-0.484 0.152s-0.338-0.049-0.451-0.148c-0.112-0.1-0.168-0.23-0.168-0.389 0-0.088 0.024-0.168 0.072-0.241zM26.386 28.282l-0.414-0.488-0.040 0.029c-0.104 0.079-0.156 0.169-0.156 0.271 0 0.088 0.028 0.159 0.085 0.214s0.132 0.082 0.227 0.082c0.107 0 0.207-0.036 0.299-0.107zM26.046 27.442l0.145-0.099 0.040-0.033c0.054-0.048 0.081-0.109 0.081-0.184 0-0.049-0.019-0.092-0.056-0.126s-0.085-0.053-0.142-0.053c-0.062 0-0.111 0.021-0.147 0.063s-0.055 0.094-0.055 0.158c0 0.073 0.045 0.164 0.134 0.275zM29.132 28.472c-0.13 0.113-0.303 0.169-0.52 0.169-0.151 0-0.284-0.036-0.4-0.107s-0.203-0.174-0.266-0.306-0.095-0.285-0.098-0.46v-0.177c0-0.179 0.032-0.336 0.095-0.473s0.154-0.241 0.272-0.315c0.119-0.074 0.256-0.111 0.411-0.111 0.209 0 0.378 0.057 0.505 0.171s0.202 0.274 0.223 0.482h-0.328c-0.016-0.136-0.056-0.234-0.12-0.294s-0.157-0.091-0.28-0.091c-0.143 0-0.253 0.053-0.331 0.158s-0.115 0.257-0.117 0.46v0.168c0 0.205 0.036 0.361 0.109 0.469s0.181 0.161 0.323 0.161c0.129 0 0.227-0.029 0.292-0.087s0.106-0.155 0.124-0.29h0.328c-0.019 0.202-0.094 0.36-0.224 0.474zM31.068 28.206c-0.064 0.14-0.156 0.247-0.276 0.323s-0.256 0.112-0.411 0.112c-0.154 0-0.291-0.037-0.411-0.112s-0.213-0.183-0.279-0.322c-0.065-0.139-0.098-0.299-0.099-0.48v-0.107c0-0.185 0.033-0.348 0.098-0.49s0.158-0.25 0.277-0.324c0.12-0.076 0.257-0.113 0.411-0.113s0.291 0.037 0.41 0.112c0.12 0.074 0.212 0.181 0.277 0.32s0.098 0.301 0.099 0.486v0.105c0 0.186-0.032 0.349-0.096 0.49zM30.716 27.135c-0.079-0.112-0.191-0.168-0.337-0.168-0.142 0-0.254 0.056-0.335 0.168s-0.121 0.269-0.122 0.473v0.109c0 0.208 0.040 0.369 0.121 0.483s0.194 0.171 0.339 0.171c0.146 0 0.258-0.056 0.336-0.167s0.119-0.273 0.119-0.487v-0.099c0-0.21-0.040-0.371-0.12-0.483z"></path>
</svg>
