<!-- Generated by IcoMoon.io -->
<svg version="1.1" xmlns="http://www.w3.org/2000/svg" width="57" height="32" viewBox="0 0 57 32">
<title>logo-4</title>
<path fill="#afb1b8" d="M12.878 11.255h-0.002c-1.279 0-2.316 0.921-2.316 2.058v0.001c0 1.137 1.037 2.058 2.316 2.058h0.002c1.279 0 2.316-0.921 2.316-2.058v-0.001c0-1.137-1.037-2.058-2.316-2.058z"></path>
<path fill="#afb1b8" d="M29.971 10.597c-0.004-1.579-0.711-3.092-1.967-4.208s-2.958-1.745-4.735-1.749v0c-1.777 0.003-3.48 0.631-4.737 1.748s-1.964 2.63-1.968 4.209v8.706c0 0 13.405-1.327 13.406-8.704v-0.001z"></path>
<path fill="#afb1b8" d="M5.867 22.16c0.003 1.098 0.496 2.151 1.369 2.928s2.058 1.215 3.294 1.218c1.236-0.003 2.42-0.441 3.294-1.218s1.366-1.829 1.37-2.927v-6.057c0 0-9.327 0.924-9.327 6.056zM10.53 23.245c-0.242 0-0.478-0.064-0.678-0.183s-0.357-0.289-0.45-0.487c-0.092-0.198-0.117-0.417-0.069-0.627s0.163-0.404 0.334-0.556c0.171-0.152 0.388-0.255 0.625-0.297s0.482-0.020 0.706 0.062c0.223 0.082 0.414 0.221 0.548 0.4s0.206 0.388 0.206 0.603c0.001 0.143-0.031 0.284-0.092 0.417s-0.151 0.252-0.264 0.353c-0.114 0.101-0.248 0.182-0.397 0.236s-0.308 0.083-0.468 0.083v-0.004z"></path>
<path fill="#afb1b8" d="M19.056 21.302v2.275h-0.469v-2.275h0.469zM19.962 22.274v0.366h-1.034v-0.366h1.034zM20.072 21.302v0.367h-1.144v-0.367h1.144zM22.212 22.386v0.108c0 0.173-0.023 0.328-0.070 0.466s-0.113 0.255-0.198 0.352c-0.085 0.096-0.187 0.169-0.306 0.22-0.118 0.051-0.248 0.077-0.392 0.077s-0.273-0.026-0.392-0.077c-0.118-0.051-0.22-0.124-0.306-0.22-0.086-0.097-0.154-0.214-0.202-0.352s-0.070-0.293-0.070-0.466v-0.108c0-0.174 0.023-0.329 0.070-0.466 0.047-0.137 0.113-0.255 0.198-0.352 0.086-0.097 0.189-0.171 0.306-0.222 0.119-0.051 0.25-0.077 0.392-0.077 0.144 0 0.274 0.026 0.392 0.077 0.119 0.051 0.221 0.125 0.306 0.222 0.086 0.097 0.153 0.214 0.2 0.352 0.048 0.136 0.072 0.292 0.072 0.466zM21.739 22.494v-0.111c0-0.121-0.011-0.227-0.033-0.319s-0.054-0.169-0.097-0.231-0.095-0.109-0.156-0.141c-0.061-0.032-0.132-0.048-0.211-0.048s-0.149 0.016-0.211 0.048c-0.060 0.031-0.112 0.078-0.155 0.141-0.042 0.063-0.073 0.14-0.095 0.231s-0.033 0.198-0.033 0.319v0.111c0 0.12 0.011 0.226 0.033 0.319 0.022 0.092 0.054 0.169 0.097 0.233 0.043 0.063 0.095 0.11 0.156 0.142s0.132 0.048 0.211 0.048c0.079 0 0.149-0.016 0.211-0.048s0.113-0.080 0.155-0.142c0.042-0.064 0.073-0.141 0.095-0.233s0.033-0.199 0.033-0.319zM23.734 22.982c0-0.041-0.006-0.077-0.019-0.109-0.011-0.033-0.033-0.064-0.066-0.091-0.032-0.028-0.078-0.056-0.136-0.083s-0.134-0.055-0.227-0.084c-0.103-0.033-0.201-0.071-0.294-0.112-0.092-0.042-0.173-0.090-0.244-0.145-0.070-0.056-0.125-0.121-0.166-0.195-0.040-0.074-0.059-0.16-0.059-0.258 0-0.095 0.021-0.181 0.063-0.258 0.042-0.078 0.1-0.145 0.175-0.2 0.075-0.056 0.164-0.099 0.266-0.13 0.103-0.030 0.216-0.045 0.339-0.045 0.168 0 0.314 0.030 0.439 0.091s0.222 0.143 0.291 0.248c0.070 0.105 0.105 0.226 0.105 0.361h-0.466c0-0.067-0.014-0.125-0.042-0.175-0.027-0.051-0.069-0.091-0.125-0.12-0.055-0.029-0.125-0.044-0.209-0.044-0.081 0-0.149 0.013-0.203 0.038-0.054 0.024-0.095 0.057-0.122 0.098-0.027 0.041-0.041 0.086-0.041 0.137 0 0.039 0.009 0.073 0.028 0.105 0.020 0.031 0.049 0.060 0.088 0.088s0.086 0.053 0.142 0.077c0.056 0.024 0.121 0.047 0.195 0.070 0.124 0.038 0.233 0.080 0.327 0.127 0.095 0.047 0.174 0.099 0.238 0.158s0.111 0.124 0.144 0.198c0.032 0.074 0.048 0.158 0.048 0.252 0 0.099-0.019 0.188-0.058 0.266s-0.094 0.144-0.167 0.198c-0.073 0.054-0.16 0.095-0.261 0.123s-0.214 0.042-0.339 0.042c-0.113 0-0.223-0.015-0.333-0.044-0.109-0.030-0.209-0.076-0.298-0.136-0.089-0.060-0.159-0.137-0.213-0.231s-0.080-0.205-0.080-0.333h0.47c0 0.071 0.011 0.131 0.033 0.18s0.053 0.089 0.092 0.119c0.041 0.030 0.089 0.052 0.144 0.066 0.056 0.014 0.118 0.020 0.184 0.020 0.081 0 0.148-0.011 0.2-0.034 0.053-0.023 0.092-0.055 0.117-0.095s0.039-0.086 0.039-0.137zM25.539 21.302v2.275h-0.467v-2.275h0.467zM26.239 21.302v0.367h-1.856v-0.367h1.856zM28.033 23.211v0.366h-1.211v-0.366h1.211zM26.975 21.302v2.275h-0.469v-2.275h0.469zM27.875 22.229v0.356h-1.053v-0.356h1.053zM28.031 21.302v0.367h-1.209v-0.367h1.209zM28.306 21.302h0.848c0.174 0 0.323 0.026 0.448 0.078 0.126 0.052 0.223 0.129 0.291 0.231s0.102 0.228 0.102 0.377c0 0.122-0.021 0.227-0.063 0.314-0.041 0.086-0.098 0.159-0.173 0.217-0.074 0.057-0.161 0.103-0.261 0.137l-0.148 0.078h-0.738l-0.003-0.366h0.548c0.082 0 0.151-0.015 0.205-0.044s0.095-0.070 0.122-0.122c0.028-0.052 0.042-0.112 0.042-0.181 0-0.073-0.014-0.136-0.041-0.189s-0.068-0.094-0.123-0.122c-0.055-0.028-0.124-0.042-0.208-0.042h-0.38v1.908h-0.469v-2.275zM29.578 23.577l-0.519-1.014 0.495-0.003 0.525 0.995v0.022h-0.502zM32.039 22.766h-0.58v-0.366h0.58c0.090 0 0.163-0.015 0.219-0.044 0.056-0.030 0.097-0.072 0.123-0.125s0.039-0.113 0.039-0.18c0-0.068-0.013-0.131-0.039-0.189s-0.067-0.105-0.123-0.141-0.129-0.053-0.219-0.053h-0.417v1.908h-0.469v-2.275h0.886c0.178 0 0.331 0.032 0.458 0.097 0.128 0.064 0.226 0.152 0.294 0.264s0.102 0.241 0.102 0.386c0 0.147-0.034 0.274-0.102 0.381s-0.166 0.19-0.294 0.248c-0.127 0.058-0.28 0.088-0.458 0.088zM34.742 23.211v0.366h-1.211v-0.366h1.211zM33.684 21.302v2.275h-0.469v-2.275h0.469zM34.584 22.229v0.356h-1.053v-0.356h1.053zM34.74 21.302v0.367h-1.209v-0.367h1.209zM36.064 21.302v2.275h-0.467v-2.275h0.467zM36.764 21.302v0.367h-1.856v-0.367h1.856zM38.558 23.211v0.366h-1.211v-0.366h1.211zM37.5 21.302v2.275h-0.469v-2.275h0.469zM38.4 22.229v0.356h-1.053v-0.356h1.053zM38.556 21.302v0.367h-1.209v-0.367h1.209zM38.831 21.302h0.848c0.174 0 0.323 0.026 0.448 0.078 0.126 0.052 0.223 0.129 0.291 0.231s0.102 0.228 0.102 0.377c0 0.122-0.021 0.227-0.063 0.314-0.041 0.086-0.098 0.159-0.173 0.217-0.074 0.057-0.161 0.103-0.261 0.137l-0.148 0.078h-0.737l-0.003-0.366h0.548c0.082 0 0.151-0.015 0.205-0.044s0.095-0.070 0.122-0.122c0.028-0.052 0.042-0.112 0.042-0.181 0-0.073-0.014-0.136-0.041-0.189s-0.068-0.094-0.123-0.122c-0.055-0.028-0.124-0.042-0.208-0.042h-0.38v1.908h-0.469v-2.275zM40.103 23.577l-0.519-1.014 0.495-0.003 0.525 0.995v0.022h-0.502zM42.065 22.982c0-0.041-0.006-0.077-0.019-0.109-0.011-0.033-0.033-0.064-0.066-0.091-0.032-0.028-0.078-0.056-0.136-0.083s-0.134-0.055-0.227-0.084c-0.103-0.033-0.201-0.071-0.294-0.112-0.092-0.042-0.173-0.090-0.244-0.145-0.070-0.056-0.125-0.121-0.166-0.195-0.040-0.074-0.059-0.16-0.059-0.258 0-0.095 0.021-0.181 0.063-0.258 0.042-0.078 0.1-0.145 0.175-0.2 0.075-0.056 0.164-0.099 0.266-0.13 0.103-0.030 0.216-0.045 0.339-0.045 0.168 0 0.314 0.030 0.439 0.091s0.222 0.143 0.291 0.248c0.070 0.105 0.105 0.226 0.105 0.361h-0.466c0-0.067-0.014-0.125-0.042-0.175-0.027-0.051-0.069-0.091-0.125-0.12-0.055-0.029-0.125-0.044-0.209-0.044-0.081 0-0.149 0.013-0.203 0.038-0.054 0.024-0.095 0.057-0.122 0.098-0.027 0.041-0.041 0.086-0.041 0.137 0 0.039 0.009 0.073 0.028 0.105 0.020 0.031 0.049 0.060 0.088 0.088s0.086 0.053 0.142 0.077c0.056 0.024 0.121 0.047 0.195 0.070 0.124 0.038 0.233 0.080 0.327 0.127 0.095 0.047 0.174 0.099 0.237 0.158s0.111 0.124 0.144 0.198c0.032 0.074 0.048 0.158 0.048 0.252 0 0.099-0.019 0.188-0.058 0.266s-0.094 0.144-0.167 0.198c-0.073 0.054-0.16 0.095-0.261 0.123s-0.214 0.042-0.339 0.042c-0.113 0-0.223-0.015-0.333-0.044-0.109-0.030-0.209-0.076-0.298-0.136-0.089-0.060-0.159-0.137-0.213-0.231s-0.080-0.205-0.080-0.333h0.47c0 0.071 0.011 0.131 0.033 0.18s0.053 0.089 0.092 0.119c0.041 0.030 0.089 0.052 0.144 0.066 0.056 0.014 0.118 0.020 0.184 0.020 0.081 0 0.148-0.011 0.2-0.034 0.053-0.023 0.092-0.055 0.117-0.095 0.026-0.041 0.039-0.086 0.039-0.137z"></path>
</svg>
